<svg width="24" height="24" viewBox="0 0 24 24" fill="none" xmlns="http://www.w3.org/2000/svg">
<path d="M22.2026 19.8621H1.79742C0.804703 19.8621 0 19.0574 0 18.0646V5.93536C0 4.94269 0.804703 4.13794 1.79742 4.13794H22.2026C23.1952 4.13794 24 4.94264 24 5.93536V18.0647C24 19.0574 23.1953 19.8621 22.2026 19.8621Z" fill="#73AF00"/>
<path d="M4.96597 9.48171C5.00675 9.74314 5.16476 9.82517 5.30211 9.81443C5.46411 9.80187 5.60619 9.65374 5.60619 9.49728V8.60018C5.60619 8.55528 5.64275 8.51862 5.68775 8.51862C5.73275 8.51862 5.76931 8.55523 5.76931 8.60018V9.50112C5.76931 9.60945 5.82284 9.71046 5.91261 9.77112C5.9674 9.80824 6.0312 9.82732 6.09547 9.82732C6.13639 9.82732 6.1775 9.81949 6.21669 9.80389L6.2982 9.77131C6.3057 10.5244 6.2599 11.1862 6.25906 11.1983C6.25269 11.2882 6.32028 11.3662 6.41014 11.3726C6.41412 11.3729 6.41801 11.3731 6.42195 11.3731C6.5068 11.3731 6.57837 11.3074 6.58451 11.2216C6.58831 11.1686 6.63856 10.4437 6.62347 9.64118L6.67278 9.62149C6.716 9.60429 6.76456 9.60635 6.80614 9.62707C6.98581 9.7166 7.202 9.68168 7.34398 9.53974L7.37337 9.5104C7.50519 9.37835 7.55051 9.18654 7.4915 9.00959L7.35261 8.59292C7.4277 8.61551 7.5102 8.58228 7.54648 8.50995C7.58679 8.42937 7.55412 8.3314 7.47354 8.29109L7.14734 8.12796C7.08833 8.09834 7.0175 8.10743 6.96748 8.15056C6.91761 8.19392 6.89876 8.26287 6.91962 8.32545L7.18208 9.11285C7.20172 9.17178 7.18662 9.23581 7.1427 9.27978L7.11336 9.30912C7.07084 9.35163 7.00606 9.36199 6.95192 9.33523C6.84622 9.2824 6.72584 9.27251 6.61292 9.30129C6.59 8.77774 6.53361 8.2564 6.41351 7.89598C6.38506 7.81057 6.29286 7.76426 6.20712 7.7929C6.12167 7.82126 6.0755 7.9136 6.104 7.9992C6.22151 8.35165 6.2727 8.88879 6.29089 9.42288L6.09561 9.50098V8.60004C6.09561 8.37513 5.91265 8.19223 5.68779 8.19223C5.46294 8.19223 5.27998 8.37513 5.27998 8.60004V9.38965L5.11358 8.5677C5.09586 8.47929 5.00989 8.42164 4.92139 8.4401C4.83303 8.4581 4.77594 8.54412 4.79389 8.63239L4.96597 9.48171Z" fill="#F5F5F5"/>
<path d="M5.28001 8.11091C5.37005 8.11091 5.44309 8.03793 5.44309 7.94779V7.78471C5.44309 7.69457 5.37005 7.62158 5.28001 7.62158C5.18991 7.62158 5.11688 7.69452 5.11688 7.78471V7.94779C5.11688 8.03793 5.18991 8.11091 5.28001 8.11091Z" fill="#F5F5F5"/>
<path d="M6.91111 7.94779H7.07424C7.16433 7.94779 7.23736 7.87485 7.23736 7.78471C7.23736 7.69457 7.16433 7.62158 7.07424 7.62158H6.91111C6.82102 7.62158 6.74799 7.69452 6.74799 7.78471C6.74799 7.87485 6.82102 7.94779 6.91111 7.94779Z" fill="#F5F5F5"/>
<path d="M5.84853 10.0914L5.03295 10.5808C4.95565 10.6271 4.93067 10.7273 4.97703 10.8046C5.00759 10.8556 5.06159 10.8838 5.11704 10.8838C5.14564 10.8838 5.17456 10.8763 5.20086 10.8605L6.01643 10.3711C6.09373 10.3248 6.11872 10.2246 6.07236 10.1473C6.02595 10.07 5.92587 10.0451 5.84853 10.0914Z" fill="#F5F5F5"/>
<path d="M8.0476 10.3801L8.05144 10.3775C8.06513 10.4326 8.08861 10.486 8.12672 10.5308C8.193 10.6088 8.29238 10.6481 8.40469 10.6388C8.56402 10.6272 8.6723 10.5544 8.74402 10.4604C8.75494 10.4679 8.76642 10.4747 8.77842 10.4808C8.8666 10.5252 8.96855 10.5218 9.06563 10.4715C9.31214 10.3446 9.36525 10.0508 9.35775 9.89728C9.35335 9.80775 9.27722 9.74456 9.18792 9.74278C9.09835 9.74662 9.0286 9.82261 9.03183 9.91214C9.03188 9.9142 9.03553 10.1077 8.91722 10.1796C8.89791 10.1527 8.87503 10.0921 8.86641 10.0421C8.85263 9.95817 8.77552 9.89972 8.69255 9.90642C8.60799 9.91307 8.54264 9.98414 8.54236 10.069C8.54232 10.0927 8.53702 10.3021 8.37544 10.3196C8.35664 10.2939 8.35632 10.1859 8.37483 10.1061C8.39044 10.0406 8.36419 9.97228 8.30883 9.93407C8.25333 9.89568 8.18016 9.89568 8.12442 9.93347L8.03339 9.99539C7.99018 9.04945 7.89056 7.94718 7.88935 7.93308C7.88124 7.84354 7.80239 7.77679 7.71216 7.78542C7.62244 7.79353 7.5563 7.87289 7.56446 7.96275C7.56586 7.97784 7.68108 9.25317 7.71657 10.2271C7.70822 10.235 7.69964 10.2437 7.69149 10.2513C7.62699 10.0887 7.49911 9.9862 7.33444 9.97064C7.10203 9.95011 6.85022 10.1083 6.75994 10.3342C6.68213 10.5285 6.73111 10.7195 6.88463 10.8206C6.99502 10.8934 7.16161 10.9163 7.3711 10.8429C7.31996 11.0226 7.22682 11.2049 7.10578 11.3458C6.99736 11.4721 6.81633 11.6179 6.58467 11.6114C6.44982 11.6061 6.34622 11.5619 6.26789 11.4763C6.07903 11.27 6.0953 10.8967 6.09544 10.8927C6.10013 10.8028 6.03136 10.7262 5.94155 10.7212C5.85113 10.7117 5.77463 10.7851 5.76966 10.8751C5.76853 10.8958 5.74486 11.3865 6.02578 11.695C6.16407 11.8471 6.34777 11.9286 6.57183 11.9373C6.58275 11.9378 6.59367 11.9379 6.60464 11.9379C6.8775 11.9379 7.14225 11.8041 7.35314 11.5583C7.55152 11.3273 7.68624 11.0136 7.72664 10.7223C7.72613 11.2803 7.38985 11.9096 6.94402 12.1869C6.75469 12.3044 6.45952 12.4105 6.12703 12.2466C5.71716 12.0443 5.766 11.5758 5.76816 11.5567C5.77936 11.4673 5.71594 11.3857 5.62655 11.3746C5.53758 11.3638 5.45555 11.4267 5.44449 11.5162C5.44083 11.5454 5.36246 12.2331 5.98271 12.5391C6.14203 12.6177 6.30863 12.6568 6.47653 12.6568C6.69221 12.6568 6.90989 12.5923 7.11624 12.4639C7.65905 12.1265 8.05303 11.3934 8.05303 10.7209C8.05299 10.6157 8.05097 10.5009 8.0476 10.3801ZM7.06407 10.5482C7.03491 10.5289 7.05769 10.4673 7.06261 10.4551C7.09697 10.3691 7.20441 10.2947 7.29024 10.2947C7.29464 10.2947 7.2991 10.2948 7.30336 10.2953C7.32422 10.2972 7.37958 10.3025 7.40339 10.4256C7.40592 10.4387 7.40808 10.452 7.40977 10.4657C7.22799 10.5725 7.10611 10.5758 7.06407 10.5482Z" fill="#F5F5F5"/>
<path d="M5.36239 12.0483C5.28509 12.0029 5.18529 12.0288 5.13936 12.1061C5.13186 12.1187 5.12192 12.1324 5.1118 12.1448C5.11001 12.1407 5.10828 12.1362 5.1065 12.1314C5.03848 11.95 5.0869 11.6704 5.11137 11.578C5.13439 11.491 5.08259 11.4018 4.99569 11.3785C4.90887 11.3562 4.81958 11.4069 4.79623 11.4939C4.78437 11.538 4.68411 11.934 4.80101 12.2459C4.87587 12.4454 4.99081 12.4957 5.07411 12.5025C5.08151 12.5031 5.08883 12.5035 5.09609 12.5035C5.27169 12.5035 5.38855 12.3265 5.42108 12.2704C5.46612 12.1928 5.43973 12.0939 5.36239 12.0483Z" fill="#F5F5F5"/>
<path d="M8.37245 9.08957C8.40775 9.08957 8.44328 9.07822 8.47309 9.05469L9.29542 8.40908C9.30677 8.40018 9.31403 8.3885 9.32233 8.37754C9.44074 8.3061 9.52089 8.17747 9.52089 8.0294C9.52089 7.80449 9.33794 7.62158 9.11308 7.62158C8.88822 7.62158 8.70527 7.80444 8.70527 8.0294C8.70527 8.15525 8.76377 8.26649 8.85358 8.34135L8.27153 8.79829C8.2007 8.85388 8.18838 8.95644 8.24397 9.02718C8.27622 9.06819 8.32413 9.08957 8.37245 9.08957ZM9.11317 7.94779C9.15817 7.94779 9.19474 7.98439 9.19474 8.02935C9.19474 8.0743 9.15817 8.11091 9.11317 8.11091C9.06817 8.11091 9.03161 8.0743 9.03161 8.02935C9.03161 7.98439 9.06817 7.94779 9.11317 7.94779Z" fill="#F5F5F5"/>
<path d="M8.92012 8.93475C8.8342 8.90611 8.74219 8.95242 8.71373 9.03782C8.69629 9.09004 8.6174 9.35915 8.77729 9.51886C8.83931 9.58097 8.92087 9.61204 9.021 9.6119C9.08794 9.6119 9.16308 9.59822 9.24633 9.57032C9.33178 9.54197 9.37795 9.44962 9.34945 9.36403C9.32095 9.27862 9.22875 9.23212 9.14306 9.26095C9.05194 9.29123 9.0134 9.28631 9.00989 9.28945C9.00028 9.26526 9.00661 9.19242 9.02334 9.14034C9.05156 9.05517 9.00539 8.96311 8.92012 8.93475Z" fill="#F5F5F5"/>
<path d="M10.7869 8.26067C10.8023 8.26512 10.8176 8.26719 10.8327 8.26719C10.9034 8.26719 10.9684 8.22101 10.9892 8.14976L11.0844 7.82356C11.1096 7.73708 11.0599 7.64647 10.9735 7.62125C10.8868 7.59622 10.7965 7.64562 10.7712 7.73211L10.6761 8.05831C10.6508 8.14489 10.7005 8.2355 10.7869 8.26067Z" fill="#F5F5F5"/>
<path d="M9.83619 8.24144C9.86211 8.25658 9.89047 8.26375 9.91837 8.26375C9.97443 8.26375 10.029 8.23492 10.0593 8.18303C10.1048 8.10531 10.0786 8.00524 10.0009 7.95991C9.96805 7.94078 9.97251 7.88678 9.97372 7.87609C9.9786 7.83325 10.0041 7.78099 10.0486 7.76711C10.1346 7.74039 10.1826 7.64894 10.1559 7.56292C10.129 7.47677 10.0377 7.42909 9.95155 7.45553C9.78894 7.50616 9.6704 7.65672 9.64954 7.83897C9.63022 8.00856 9.70176 8.16278 9.83619 8.24144Z" fill="#F5F5F5"/>
<path d="M8.54228 10.8838C8.45218 10.8838 8.37915 10.9568 8.37915 11.0469C8.37915 11.1266 8.4362 11.1928 8.51167 11.2071C8.52024 11.2197 8.54223 11.2629 8.54223 11.3731C8.54223 11.4633 8.61526 11.5362 8.70535 11.5362C8.79545 11.5362 8.86848 11.4633 8.86848 11.3731C8.86853 10.8894 8.55559 10.8838 8.54228 10.8838Z" fill="#F5F5F5"/>
<path d="M11.3096 10.2084C11.3301 10.2117 11.3505 10.2133 11.3709 10.2133C11.4991 10.2133 11.6286 10.1487 11.7568 10.0204C11.8205 9.95674 11.8205 9.85353 11.7568 9.78982C11.6931 9.72612 11.5899 9.72612 11.5262 9.78982C11.4286 9.88746 11.3761 9.88953 11.3627 9.88648C11.3316 9.88203 11.3034 9.84139 11.2971 9.83028C11.2561 9.75092 11.1591 9.71928 11.0792 9.75921C10.9987 9.79953 10.9659 9.8975 11.0063 9.97807C11.0163 9.99828 11.1106 10.176 11.3096 10.2084Z" fill="#F5F5F5"/>
<path d="M14.0822 9.06206C14.0811 9.05953 14.0802 9.05709 14.0794 9.05489C14.0504 8.97019 13.958 8.92411 13.8735 8.95294C13.7879 8.98129 13.7418 9.07364 13.7703 9.15923C13.783 9.19744 13.8557 9.38925 14.0357 9.41344C14.0477 9.41503 14.0597 9.41583 14.0715 9.41583C14.1845 9.41583 14.2906 9.3427 14.387 9.19804C14.4369 9.12319 14.4167 9.02189 14.3417 8.97187C14.2667 8.922 14.1654 8.94206 14.1155 9.01715C14.1027 9.03642 14.0915 9.05109 14.0822 9.06206Z" fill="#F5F5F5"/>
<path d="M13.7619 12.0255C13.7619 11.3299 13.7313 10.6774 13.6889 10.1056C13.9205 10.5073 14.1288 10.9132 14.2616 11.2673C14.2862 11.3327 14.3483 11.373 14.4143 11.373C14.4333 11.373 14.4527 11.3697 14.4716 11.3627C14.556 11.331 14.5987 11.237 14.5671 11.1526C14.3606 10.6022 13.9895 9.94669 13.6238 9.36478C13.5346 8.48611 13.4348 7.92839 13.433 7.91845C13.4169 7.82977 13.3321 7.76986 13.2434 7.78716C13.1547 7.80324 13.0959 7.88813 13.112 7.97672C13.1133 7.9838 13.1647 8.2711 13.2261 8.75461C13.1008 8.56866 12.9844 8.40089 12.8867 8.2628L12.8946 8.26533C12.9805 8.29397 13.0725 8.24766 13.101 8.1623C13.1295 8.07675 13.0833 7.98436 12.9979 7.956L12.5085 7.79288C12.4406 7.76996 12.3661 7.79419 12.3246 7.85217C12.3135 7.86764 12.3059 7.88461 12.3008 7.90219C12.2031 7.83 12.0779 7.77127 11.9603 7.82053C11.8892 7.85002 11.8044 7.92422 11.8044 8.11074C11.8044 8.25394 11.8591 8.40877 11.917 8.57283C12.013 8.84489 12.0732 9.04496 11.9715 9.14039C11.9153 9.19308 11.8591 9.213 11.8043 9.19917C11.7037 9.17367 11.6042 9.03971 11.5378 8.84077C11.5349 8.83214 11.5289 8.82586 11.5248 8.81813C11.5591 8.56547 11.5442 8.26106 11.475 7.91564C11.4574 7.82724 11.3717 7.76972 11.2831 7.78772C11.1947 7.80539 11.1375 7.89127 11.1551 7.97967C11.2616 8.51231 11.2297 8.94689 11.0697 9.14203C11.0078 9.21755 10.9303 9.25256 10.8257 9.25256C10.7927 9.25256 10.7701 9.24206 10.7477 9.21624C10.619 9.06792 10.6195 8.58942 10.6611 8.29678C10.6677 8.25014 10.6537 8.20266 10.6227 8.16694C10.5917 8.13127 10.5468 8.11074 10.4995 8.11074C10.2189 8.11074 10.1124 8.42991 10.0186 8.71158C9.9774 8.83538 9.90062 9.06553 9.84709 9.08944C9.74837 9.08944 9.68453 8.79952 9.68396 8.59992C9.68368 8.50992 9.61079 8.43713 9.52084 8.43713C9.52084 8.43713 9.5207 8.43713 9.52056 8.43713C9.43056 8.43713 9.35767 8.51011 9.35767 8.60011C9.35767 8.97633 9.48582 9.41569 9.84704 9.41569C10.116 9.41569 10.2249 9.12263 10.3162 8.85019C10.332 9.0668 10.3809 9.29124 10.5012 9.42985C10.5857 9.52735 10.6979 9.57877 10.8257 9.57877C11.0271 9.57877 11.1986 9.49927 11.3219 9.34889C11.3443 9.3217 11.3635 9.29044 11.3825 9.25889C11.4772 9.39356 11.5934 9.48235 11.7243 9.51539C11.7627 9.5251 11.8013 9.53002 11.8395 9.53002C11.9654 9.53002 12.0885 9.47808 12.1947 9.37819C12.2168 9.35747 12.2324 9.33474 12.2492 9.31238C12.2891 9.32377 12.3295 9.33052 12.3697 9.33052C12.5019 9.33052 12.6291 9.27731 12.708 9.22664C12.7835 9.17822 12.8054 9.07819 12.7574 9.00235C12.7094 8.92669 12.6089 8.90405 12.5328 8.95153C12.5314 8.95219 12.4225 9.01481 12.3482 9.00014C12.3484 8.82131 12.2837 8.63142 12.2246 8.46413C12.191 8.36883 12.1566 8.27124 12.1403 8.19145C12.1537 8.2028 12.1668 8.21456 12.1786 8.226C12.2422 8.2897 12.3455 8.2897 12.4092 8.226C12.4197 8.21545 12.4258 8.20266 12.4329 8.19033C12.6019 8.42325 12.9497 8.91272 13.3074 9.47691C13.3757 10.1704 13.4356 11.0551 13.4356 12.0254C13.4356 12.1155 13.5086 12.1885 13.5987 12.1885C13.6889 12.1886 13.7619 12.1157 13.7619 12.0255Z" fill="#F5F5F5"/>
<path d="M13.9251 8.43702C13.9251 8.52716 13.9981 8.60014 14.0882 8.60014C14.1783 8.60014 14.2513 8.52716 14.2513 8.43702C14.2513 8.24507 14.1011 7.93494 14.071 7.87471C14.0307 7.79427 13.9328 7.76178 13.8521 7.80177C13.7716 7.84208 13.7388 7.94005 13.7792 8.02063C13.838 8.13833 13.9251 8.35194 13.9251 8.43702Z" fill="#F5F5F5"/>
<path d="M13.1828 12.0435C13.1029 12.0027 13.0046 12.0351 12.9639 12.1153C12.9464 12.1496 12.9192 12.1877 12.8963 12.2122C12.8891 12.1474 12.9063 12.0178 12.9392 11.9105C12.9611 11.8388 12.9314 11.7614 12.8672 11.7229C12.8033 11.6842 12.7208 11.6942 12.6679 11.7472L12.3417 12.0734C12.278 12.1371 12.278 12.2404 12.3417 12.3041C12.4054 12.3678 12.5086 12.3678 12.5723 12.3041L12.5806 12.2958C12.5948 12.3613 12.6218 12.421 12.668 12.4672C12.7291 12.5284 12.803 12.5607 12.8799 12.5607C12.8948 12.5607 12.9098 12.5594 12.9248 12.5571C13.1095 12.5271 13.2246 12.3234 13.2554 12.2617C13.2955 12.1812 13.2631 12.0839 13.1828 12.0435Z" fill="#F5F5F5"/>
<path d="M13.1197 10.7309H11.97C11.9802 10.6903 11.9907 10.6515 12.0014 10.6148C12.4599 10.5195 12.7324 10.3715 12.8125 10.1741C12.8402 10.1056 12.8691 9.96714 12.7511 9.808C12.6448 9.66461 12.4947 9.6003 12.3388 9.63213C12.107 9.6791 11.9005 9.92885 11.7523 10.3287C11.2918 10.4075 10.9971 10.5728 10.8104 10.736C10.7443 10.0676 10.4848 9.67047 10.4722 9.65158C10.4221 9.57653 10.3208 9.55628 10.246 9.6063C10.171 9.65632 10.1508 9.75747 10.2007 9.83247C10.2037 9.83693 10.4995 10.2895 10.4995 11.0469C10.4995 11.7914 9.90586 12.3518 9.52087 12.3518C9.33773 12.3518 9.25753 12.1341 9.22233 11.95C9.59929 11.6858 9.93192 11.3801 10.0054 11.0864C10.1048 10.6889 9.97968 10.396 9.8969 10.2022C9.89301 10.1933 9.88893 10.1837 9.88481 10.1738C9.88832 10.177 9.89165 10.1803 9.89498 10.1835C9.95854 10.2472 10.0619 10.2472 10.1256 10.1835C10.1893 10.1198 10.1893 10.0166 10.1256 9.95289C10.0302 9.85746 9.84506 9.70755 9.67673 9.77796C9.60562 9.80744 9.52082 9.88164 9.52082 10.0682C9.52082 10.1524 9.55603 10.2348 9.59681 10.3303C9.67026 10.5022 9.76162 10.7162 9.68882 11.0073C9.64575 11.1796 9.43415 11.3886 9.15492 11.5962C9.12497 11.5604 9.08175 11.5363 9.0315 11.5363H9.03122C8.94122 11.5365 8.86832 11.6093 8.86832 11.6993C8.86832 11.7287 8.86964 11.76 8.87151 11.7922C8.52243 12.0183 8.12742 12.2275 7.82207 12.3664C7.74009 12.4037 7.7039 12.5004 7.74117 12.5824C7.7685 12.6424 7.82775 12.678 7.88972 12.678C7.91231 12.678 7.93528 12.6734 7.95712 12.6633C8.04881 12.6217 8.48414 12.4188 8.93132 12.1417C9.01368 12.4213 9.1882 12.678 9.52078 12.678C9.91209 12.678 10.356 12.3581 10.6122 11.8803C10.6432 11.935 10.6787 11.9873 10.7211 12.0361C11.1316 12.5095 11.9336 12.5149 11.9675 12.5149C12.0554 12.5149 12.1274 12.4454 12.1305 12.3577C12.1336 12.2699 12.0667 12.1953 11.9792 12.1892C11.9779 12.189 11.8479 12.1747 11.7756 12.0902C11.732 12.0392 11.7145 11.9692 11.7222 11.876C11.7389 11.675 12.3873 11.5247 12.9588 11.5158C13.0268 11.5147 13.0872 11.4716 13.11 11.4074L13.2731 10.9487C13.2908 10.8988 13.2832 10.8432 13.2526 10.8001C13.2224 10.7567 13.1726 10.7309 13.1197 10.7309ZM12.4037 9.95196C12.4068 9.95135 12.4109 9.95036 12.4161 9.95036C12.4317 9.95036 12.4563 9.958 12.4891 10.0023C12.4953 10.0106 12.5152 10.0389 12.5102 10.0514C12.4915 10.0976 12.3788 10.1739 12.1442 10.243C12.2474 10.0416 12.3483 9.96311 12.4037 9.95196ZM11.4186 12.0962C11.2529 12.0423 11.084 11.9569 10.9671 11.8217C10.8386 11.6731 10.7912 11.4851 10.8223 11.2473C10.827 11.2348 10.8377 11.2102 10.8563 11.1782C11.086 11.1571 11.6997 11.2477 11.7422 11.4234C11.5529 11.52 11.4135 11.6558 11.3974 11.8489C11.3893 11.9458 11.3992 12.0279 11.4186 12.0962Z" fill="#F5F5F5"/>
<path d="M14.8954 8.38542L14.7323 7.89605C14.706 7.81739 14.6243 7.77037 14.5434 7.78819C14.4621 7.80558 14.4069 7.88119 14.4152 7.96387C14.5278 9.08944 14.7407 11.2845 14.7407 11.5362C14.7407 11.7622 14.3386 12.2072 13.689 12.5321C13.6085 12.5724 13.5757 12.6703 13.6161 12.7509C13.6447 12.8081 13.7023 12.8411 13.7622 12.8411C13.7866 12.8411 13.8116 12.8355 13.835 12.8239C14.4284 12.5272 15.0669 11.9977 15.0669 11.5362C15.0669 11.2951 14.9002 9.56114 14.8048 8.58708C14.8821 8.55408 14.9225 8.4667 14.8954 8.38542Z" fill="#F5F5F5"/>
<path d="M16.2564 9.85735C16.2878 9.88875 16.3295 9.90516 16.3718 9.90516C16.3994 9.90516 16.4272 9.89818 16.4524 9.88378C16.5162 9.84746 16.5479 9.77293 16.5298 9.70172C16.5006 9.58707 16.4909 9.44368 16.5064 9.38508C16.5881 9.38761 16.6639 9.32949 16.6759 9.24521C16.6886 9.156 16.6267 9.07332 16.5375 9.06061C16.4297 9.04599 16.335 9.07763 16.2688 9.15122C16.226 9.19904 16.2005 9.26035 16.1867 9.3263L15.9978 9.13739C15.9341 9.07369 15.8308 9.07369 15.7671 9.13739C15.7034 9.2011 15.7034 9.30432 15.7671 9.36802L16.2564 9.85735Z" fill="#F5F5F5"/>
<path d="M16.6233 10.0274L16.0117 10.4658C15.9385 10.5182 15.9216 10.6201 15.9741 10.6934C16.0059 10.7378 16.056 10.7614 16.1069 10.7614C16.1398 10.7614 16.173 10.7515 16.2017 10.7308L16.8134 10.2925C16.8866 10.2401 16.9035 10.1381 16.851 10.0648C16.7984 9.99152 16.6963 9.97446 16.6233 10.0274Z" fill="#F5F5F5"/>
<path d="M16.5691 10.6409C16.5178 10.707 16.5252 10.8 16.5834 10.8572C16.5904 10.869 16.6222 10.9314 16.6165 11.092C16.6133 11.1822 16.6837 11.2577 16.7737 11.2609C16.7757 11.261 16.7777 11.261 16.7796 11.261C16.8671 11.261 16.9394 11.1917 16.9426 11.1038C16.9545 10.7709 16.8455 10.6492 16.7981 10.6123C16.7271 10.5568 16.6245 10.5699 16.5691 10.6409Z" fill="#F5F5F5"/>
<path d="M17.9927 11.8419C18.0828 11.8419 18.1558 11.769 18.1558 11.6788C18.1558 11.4382 18.1434 11.1695 18.1232 10.89C18.285 11.155 18.4193 11.3993 18.5055 11.6003C18.5319 11.6623 18.5921 11.6992 18.6555 11.6992C18.6769 11.6992 18.6987 11.6951 18.7196 11.686C18.8024 11.6505 18.8408 11.5545 18.8052 11.4719C18.6559 11.1234 18.3768 10.6618 18.0589 10.1852C17.995 9.5865 17.9114 8.99986 17.8464 8.57906C17.881 8.58258 17.9168 8.57414 17.9483 8.5537C17.9998 8.5207 18.0239 8.46338 18.0205 8.40633C18.0246 8.42236 18.0291 8.43844 18.0385 8.4532C18.0396 8.4548 18.1444 8.62791 18.0979 8.85258C18.0797 8.94066 18.1364 9.027 18.2246 9.04528C18.2358 9.04749 18.247 9.04866 18.2578 9.04866C18.3335 9.04866 18.4014 8.99559 18.4174 8.91853C18.4911 8.56219 18.321 8.28952 18.3138 8.27803C18.2653 8.20219 18.1645 8.17992 18.0885 8.22802C18.0368 8.26097 18.0123 8.31834 18.0156 8.37553C18.0114 8.35941 18.0067 8.34319 17.9973 8.32842L17.722 7.90027C17.6799 7.83492 17.5976 7.80849 17.5254 7.83656C17.453 7.86492 17.4106 7.94025 17.4241 8.0167C17.4264 8.02955 17.551 8.74533 17.6615 9.60806C17.5364 9.43149 17.4114 9.25875 17.2901 9.09403C17.2705 8.84723 17.2507 8.61909 17.2336 8.43042C17.2426 8.42775 17.2514 8.42424 17.2601 8.41992C17.3407 8.37961 17.3734 8.28164 17.3331 8.20106L17.17 7.87486C17.1348 7.80445 17.0544 7.76939 16.9788 7.79105C16.9032 7.81303 16.8539 7.88564 16.8618 7.96402C16.8812 8.15869 16.9015 8.37417 16.9213 8.60053C16.8182 8.4645 16.7227 8.34005 16.641 8.23463C16.657 8.22094 16.6706 8.20392 16.6806 8.18381C16.7209 8.10324 16.6882 8.00527 16.6076 7.96495L16.2814 7.80183C16.213 7.76775 16.1299 7.78561 16.0816 7.84519C16.0335 7.90477 16.0332 7.9898 16.0811 8.0497C16.09 8.06067 16.4916 8.56411 16.972 9.21389C17.0553 10.2916 17.1108 11.4127 17.0325 11.6477C17.0181 11.6908 16.9931 11.7414 16.9696 11.7432C16.871 11.7569 16.6357 11.5365 16.5176 11.3002C16.4494 11.1642 16.3515 11.15 16.2991 11.1524C16.1238 11.1632 16.0554 11.3561 15.9311 11.7062C15.8419 11.9571 15.7312 12.269 15.6069 12.3966C15.5396 12.3143 15.4525 12.0382 15.4041 11.7544C15.4268 11.8171 15.4856 11.8625 15.5561 11.8625C15.6462 11.8625 15.7192 11.7896 15.7192 11.6994C15.7192 11.4562 15.5491 9.60361 15.4541 8.58834C15.5335 8.55647 15.5751 8.46778 15.5478 8.38556L15.3846 7.89619C15.3584 7.81753 15.2779 7.77113 15.1961 7.78819C15.115 7.80539 15.0596 7.88072 15.0675 7.96327C15.1783 9.12689 15.3862 11.3745 15.3926 11.6847C15.3922 11.6819 15.3917 11.6791 15.3913 11.6763C15.3786 11.5871 15.2954 11.526 15.2067 11.5379C15.1175 11.5508 15.0557 11.6333 15.0684 11.7225C15.116 12.0559 15.2377 12.6292 15.518 12.7225C15.5402 12.73 15.57 12.7367 15.6049 12.7367C15.6693 12.7367 15.751 12.7139 15.8345 12.6303C16.0121 12.4527 16.1324 12.114 16.2385 11.8154C16.2625 11.7478 16.2908 11.6678 16.3175 11.5994C16.4672 11.8179 16.7283 12.09 16.9928 12.0687C17.0858 12.062 17.255 12.012 17.342 11.751C17.4287 11.4908 17.3944 10.5834 17.336 9.71456C17.4734 9.90717 17.611 10.1044 17.7423 10.2992C17.7932 10.7877 17.8296 11.277 17.8296 11.679C17.8296 11.769 17.9026 11.8419 17.9927 11.8419Z" fill="#F5F5F5"/>
<path d="M19.2306 10.984C19.115 10.1232 18.9541 9.12605 18.8521 8.51405C18.8981 8.52539 18.9483 8.51611 18.9887 8.48503C19.0604 8.43042 19.0741 8.328 19.0194 8.25647L18.7238 7.86905C18.6782 7.80947 18.5977 7.78847 18.5288 7.81856C18.4599 7.84866 18.4206 7.92197 18.4334 7.99603C18.4364 8.01272 18.7272 9.68719 18.9071 11.0273C18.9758 11.5395 18.8755 11.9971 18.6386 12.2513C18.4863 12.4147 18.2845 12.4885 18.0403 12.4743C17.9506 12.4695 17.8728 12.537 17.8672 12.6269C17.8616 12.7168 17.9298 12.7942 18.0197 12.7999C18.0473 12.8017 18.0744 12.8024 18.1013 12.8024C18.4089 12.8024 18.6759 12.6897 18.8772 12.4736C19.1846 12.144 19.3134 11.601 19.2306 10.984Z" fill="#F5F5F5"/>
<path d="M17.4361 12.0595C17.3762 12.1246 17.3807 12.2272 17.4442 12.2886C17.453 12.2972 17.4636 12.3141 17.4637 12.3224C17.4637 12.327 17.4572 12.3407 17.439 12.3589C17.3753 12.4226 17.3753 12.5258 17.439 12.5895C17.4709 12.6214 17.5126 12.6373 17.5544 12.6373C17.5961 12.6373 17.6379 12.6214 17.6697 12.5895C17.7732 12.4861 17.7922 12.3812 17.7898 12.3112C17.7848 12.1607 17.6823 12.0635 17.6618 12.0455C17.5952 11.9876 17.496 11.9946 17.4361 12.0595Z" fill="#F5F5F5"/>
<path d="M16.8611 15.6366H16.698H15.7193V15.4734C15.7193 15.3833 15.6463 15.3103 15.5562 15.3103C15.4661 15.3103 15.393 15.3833 15.393 15.4734V15.6366H6.74799C7.07419 15.9628 7.72664 16.1259 8.21602 16.1259C8.56697 16.1259 12.9447 16.1259 15.393 16.1259V16.4521C15.393 16.5423 15.4661 16.6153 15.5562 16.6153H16.8611C17.1309 16.6153 17.3505 16.3957 17.3505 16.1259C17.3504 15.8561 17.1309 15.6366 16.8611 15.6366ZM16.8611 16.289H15.7193V16.1259C16.5053 16.1259 17.0242 16.1259 17.0242 16.1259L16.9949 16.0381C17.0118 16.0638 17.0242 16.0928 17.0242 16.1259C17.0242 16.2159 16.951 16.289 16.8611 16.289Z" fill="#F5F5F5"/>
</svg>
