<svg xmlns="http://www.w3.org/2000/svg" width="46" height="54" viewBox="0 0 46 54">
    <g fill="none" fill-rule="evenodd">
        <g fill="#712C81" fill-rule="nonzero">
            <path d="M32.943 45.005a6.113 6.113 0 0 1-3.147 8.062 6.12 6.12 0 0 1-8.066-3.147 6.053 6.053 0 0 1-.502-2.54l10.186-4.463a6.083 6.083 0 0 1 1.53 2.088zM1.49 28.83C-1.385 21.604.078 14.716 4.375 10.21c-.178-.27-.356-.523-.49-.834A6.109 6.109 0 0 1 7.03 1.321a6.128 6.128 0 0 1 8.068 3.145c.128.293.199.596.275.898 6.437-.13 12.79 3.786 16.112 10.449 0 0 4.918 11.285 10.32 12.182.166.01 3.064.082 3.948 2.192.833 1.996-.882 4.667-3.867 5.952L9.566 50.058c-2.98 1.284-6.274.77-6.98-1.274-.695-2.014.832-3.887.977-4.054 3.05-4.682-2.073-15.9-2.073-15.9z"/>
        </g>
        <circle cx="30" cy="12" r="9" fill="#DA3F7B" stroke="#F8F8FA" stroke-width="2"/>
    </g>
</svg>
