<svg xmlns="http://www.w3.org/2000/svg" xmlns:xlink="http://www.w3.org/1999/xlink" width="207" height="148" viewBox="0 0 207 148">
    <defs>
        <linearGradient id="yts9j6fqqb" x1="50%" x2="54.339%" y1="49.966%" y2="50.183%">
            <stop offset="0%" stop-color="#EDDDF1" stop-opacity=".423"/>
            <stop offset="100%" stop-color="#EDDDF1"/>
        </linearGradient>
        <filter id="cvgdqfzi8c" width="109.2%" height="263.6%" x="-4.6%" y="-81.8%" filterUnits="objectBoundingBox">
            <feGaussianBlur in="SourceGraphic" stdDeviation="3"/>
        </filter>
        <path id="v7x8gbcwda" d="M0 0.078L305.939 0.078 305.939 150.291 0 150.291z"/>
    </defs>
    <g fill="none" fill-rule="evenodd">
        <g>
            <g>
                <g>
                    <g transform="translate(-1274 -739) translate(1224 728)"/>
                    <path fill="#CFA8D8" d="M102 42L104 42 104 12 102 12zM216 47L218 47 218 11 216 11z" transform="translate(-1274 -739) translate(1224 728)"/>
                    <path fill="#9741D9" d="M216.827 38.885L98.173 25.063c-5.071-.59-9.662 3.033-10.254 8.094l-8.856 75.724c-.592 5.06 3.04 9.642 8.11 10.233l118.654 13.823c5.071.59 9.662-3.034 10.253-8.094l8.857-75.725c.592-5.06-3.04-9.642-8.11-10.233" transform="translate(-1274 -739) translate(1224 728)"/>
                    <path fill="#FFF" fill-rule="nonzero" d="M126 106V94.3h5.28v-6.12H126V63.7h-6.24L104.4 89.86v4.44h14.82V106H126zm-15.3-17.34l2.4-2.28 4.74-8.04 1.8-4.86h.24l-.66 5.4v9.3h-5.46l-3.06.48zm38.1 18.18c1.96 0 3.7-.4 5.22-1.2 1.52-.8 2.8-2.07 3.84-3.81 1.04-1.74 1.84-4 2.4-6.78.56-2.78.84-6.15.84-10.11 0-3.92-.25-7.26-.75-10.02s-1.26-5.01-2.28-6.75c-1.02-1.74-2.3-3.01-3.84-3.81-1.54-.8-3.35-1.2-5.43-1.2-1.96 0-3.7.4-5.22 1.2-1.52.8-2.8 2.07-3.84 3.81-1.04 1.74-1.83 3.99-2.37 6.75s-.81 6.1-.81 10.02c0 3.88.25 7.2.75 9.96.5 2.76 1.25 5.03 2.25 6.81 1 1.78 2.27 3.08 3.81 3.9 1.54.82 3.35 1.23 5.43 1.23zm.06-6.36c-1.84 0-3.16-1.25-3.96-3.75-.8-2.5-1.2-6.43-1.2-11.79 0-2.76.1-5.12.3-7.08.2-1.96.5-3.56.9-4.8.4-1.24.92-2.14 1.56-2.7s1.42-.84 2.34-.84c1.88 0 3.21 1.24 3.99 3.72.78 2.48 1.17 6.38 1.17 11.7 0 2.84-.1 5.24-.3 7.2-.2 1.96-.5 3.56-.9 4.8-.4 1.24-.93 2.14-1.59 2.7s-1.43.84-2.31.84zm39.3 5.52V94.3h5.28v-6.12h-5.28V63.7h-6.24l-15.36 26.16v4.44h14.82V106h6.78zm-15.3-17.34l2.4-2.28 4.74-8.04 1.8-4.86h.24l-.66 5.4v9.3h-5.46l-3.06.48z" transform="translate(-1274 -739) translate(1224 728) rotate(6 148.92 85)"/>
                    <path fill="#4F008C" d="M224.067 56l.87-7.35c.588-4.962-3.018-9.456-8.054-10.034L98.053 25.062c-5.036-.58-9.594 2.974-10.182 7.936L87 40.348 224.067 56z" transform="translate(-1274 -739) translate(1224 728)"/>
                    <path fill="#FFF" d="M101.983 35.79c-.16 1.37-1.401 2.353-2.773 2.193-1.371-.16-2.353-1.402-2.193-2.773.16-1.371 1.401-2.353 2.773-2.193 1.371.16 2.353 1.402 2.193 2.773" transform="translate(-1274 -739) translate(1224 728)"/>
                    <path fill="#CFA8D8" d="M113.983 36.79c-.16 1.37-1.402 2.353-2.773 2.193-1.37-.16-2.352-1.402-2.193-2.773.16-1.371 1.402-2.353 2.773-2.193 1.371.16 2.353 1.402 2.193 2.773" transform="translate(-1274 -739) translate(1224 728)"/>
                    <path fill="#FFDD40" d="M125.983 38.79c-.16 1.371-1.401 2.353-2.773 2.193-1.371-.16-2.353-1.401-2.193-2.773.16-1.371 1.401-2.353 2.773-2.193 1.371.16 2.353 1.402 2.193 2.773" transform="translate(-1274 -739) translate(1224 728)"/>
                    <path fill="url(#yts9j6fqqb)" d="M69.416 147.016c-.318-.301-3.052-.54-4.899-.811-4.342-.637-8.007-1.64-1.349-2.264 8.529-.8 28.502-.71 41.099-1.075 6.83-.198 12.383-.532 17.537-.874 3.746-.248 7.415-.508 12-.694 9.415-.383 22.354-.398 32-.039 9.798.366 16.106 1.012 28.863.871 5.29-.058 26.3 2.533 29.337 3.012 3.94.62 15.29.853 21.62 1.355 5.095.404 6.3.917 4.738 1.412-3.15.996-5.666 2.056-11.676 3.003-6.6 1.04-26.278 1.05-41.653 1.05-23.361.003-47.561.115-70.73-.06-18.077-.135-39.126-.457-54.14-1.128-10.833-.484-20.708-1.338-15.925-2.2 3.13-.565 13.867-.903 13.178-1.558z" filter="url(#cvgdqfzi8c)" opacity=".474" transform="translate(-1274 -739) translate(1224 728)"/>
                </g>
            </g>
        </g>
    </g>
</svg>
