<svg xmlns="http://www.w3.org/2000/svg" width="207" height="146" viewBox="0 0 207 146">
    <defs>
        <linearGradient id="6m5e6rf49a" x1="50%" x2="54.339%" y1="49.966%" y2="50.183%">
            <stop offset="0%" stop-color="#EDDDF1" stop-opacity=".423"/>
            <stop offset="100%" stop-color="#EDDDF1"/>
        </linearGradient>
        <filter id="n8053fxoab" width="109.2%" height="263.6%" x="-4.6%" y="-81.8%" filterUnits="objectBoundingBox">
            <feGaussianBlur in="SourceGraphic" stdDeviation="3"/>
        </filter>
    </defs>
    <g fill="none" fill-rule="evenodd">
        <g>
            <g>
                <g>
                    <g>
                        <path fill="#CFA8D8" d="M68 31L70 31 70 1 68 1zM182 36L184 36 184 0 182 0z" transform="translate(-1270 -427) translate(1258 427)"/>
                        <path fill="#9741D9" d="M182.827 27.885L64.173 14.063c-5.071-.59-9.662 3.033-10.254 8.094L45.063 97.88c-.592 5.06 3.04 9.642 8.11 10.233l118.654 13.823c5.071.59 9.662-3.034 10.253-8.094l8.857-75.725c.592-5.06-3.04-9.642-8.11-10.233" transform="translate(-1270 -427) translate(1258 427)"/>
                        <path fill="#FFF" fill-rule="nonzero" d="M79.72 95.84c1.92 0 3.7-.3 5.34-.9 1.64-.6 3.05-1.5 4.23-2.7 1.18-1.2 2.11-2.7 2.79-4.5.68-1.8 1.02-3.88 1.02-6.24 0-4.12-.96-7.32-2.88-9.6-1.92-2.28-4.5-3.48-7.74-3.6l-1.98.24v-8.58h11.34V53H74.38v21.9l3.9-.24c2.48 0 4.38.56 5.7 1.68 1.32 1.12 1.98 2.94 1.98 5.46 0 2.2-.56 4-1.68 5.4-1.12 1.4-2.76 2.1-4.92 2.1-2.32 0-4.22-.38-5.7-1.14l-1.86 6.06c.92.48 2.11.87 3.57 1.17 1.46.3 2.91.45 4.35.45zm34.08 0c1.96 0 3.7-.4 5.22-1.2 1.52-.8 2.8-2.07 3.84-3.81 1.04-1.74 1.84-4 2.4-6.78.56-2.78.84-6.15.84-10.11 0-3.92-.25-7.26-.75-10.02s-1.26-5.01-2.28-6.75c-1.02-1.74-2.3-3.01-3.84-3.81-1.54-.8-3.35-1.2-5.43-1.2-1.96 0-3.7.4-5.22 1.2-1.52.8-2.8 2.07-3.84 3.81-1.04 1.74-1.83 3.99-2.37 6.75s-.81 6.1-.81 10.02c0 3.88.25 7.2.75 9.96.5 2.76 1.25 5.03 2.25 6.81 1 1.78 2.27 3.08 3.81 3.9 1.54.82 3.35 1.23 5.43 1.23zm.06-6.36c-1.84 0-3.16-1.25-3.96-3.75-.8-2.5-1.2-6.43-1.2-11.79 0-2.76.1-5.12.3-7.08.2-1.96.5-3.56.9-4.8.4-1.24.92-2.14 1.56-2.7s1.42-.84 2.34-.84c1.88 0 3.21 1.24 3.99 3.72.78 2.48 1.17 6.38 1.17 11.7 0 2.84-.1 5.24-.3 7.2-.2 1.96-.5 3.56-.9 4.8-.4 1.24-.93 2.14-1.59 2.7s-1.43.84-2.31.84zm31.02 6.36c1.96 0 3.7-.4 5.22-1.2 1.52-.8 2.8-2.07 3.84-3.81 1.04-1.74 1.84-4 2.4-6.78.56-2.78.84-6.15.84-10.11 0-3.92-.25-7.26-.75-10.02s-1.26-5.01-2.28-6.75c-1.02-1.74-2.3-3.01-3.84-3.81-1.54-.8-3.35-1.2-5.43-1.2-1.96 0-3.7.4-5.22 1.2-1.52.8-2.8 2.07-3.84 3.81-1.04 1.74-1.83 3.99-2.37 6.75s-.81 6.1-.81 10.02c0 3.88.25 7.2.75 9.96.5 2.76 1.25 5.03 2.25 6.81 1 1.78 2.27 3.08 3.81 3.9 1.54.82 3.35 1.23 5.43 1.23zm.06-6.36c-1.84 0-3.16-1.25-3.96-3.75-.8-2.5-1.2-6.43-1.2-11.79 0-2.76.1-5.12.3-7.08.2-1.96.5-3.56.9-4.8.4-1.24.92-2.14 1.56-2.7s1.42-.84 2.34-.84c1.88 0 3.21 1.24 3.99 3.72.78 2.48 1.17 6.38 1.17 11.7 0 2.84-.1 5.24-.3 7.2-.2 1.96-.5 3.56-.9 4.8-.4 1.24-.93 2.14-1.59 2.7s-1.43.84-2.31.84z" transform="translate(-1270 -427) translate(1258 427) rotate(6 114.49 74)"/>
                        <path fill="#4F008C" d="M190.067 45l.87-7.35c.588-4.962-3.018-9.456-8.054-10.034L64.053 14.062c-5.036-.58-9.594 2.974-10.182 7.936L53 29.348 190.067 45z" transform="translate(-1270 -427) translate(1258 427)"/>
                        <path fill="#FFF" d="M67.983 24.79c-.16 1.37-1.401 2.353-2.773 2.193-1.371-.16-2.353-1.402-2.193-2.773.16-1.371 1.401-2.353 2.773-2.193 1.371.16 2.353 1.402 2.193 2.773" transform="translate(-1270 -427) translate(1258 427)"/>
                        <path fill="#CFA8D8" d="M79.983 25.79c-.16 1.37-1.402 2.353-2.773 2.193-1.37-.16-2.352-1.402-2.193-2.773.16-1.371 1.402-2.353 2.773-2.193 1.371.16 2.353 1.402 2.193 2.773" transform="translate(-1270 -427) translate(1258 427)"/>
                        <path fill="#FFDD40" d="M91.983 27.79c-.16 1.371-1.401 2.353-2.773 2.193-1.371-.16-2.353-1.401-2.193-2.773.16-1.371 1.401-2.353 2.773-2.193 1.371.16 2.353 1.402 2.193 2.773" transform="translate(-1270 -427) translate(1258 427)"/>
                    </g>
                    <path fill="url(#6m5e6rf49a)" d="M31.416 134.016c-.318-.301-3.052-.54-4.899-.811-4.342-.637-8.007-1.64-1.349-2.264 8.529-.8 28.502-.71 41.099-1.075 6.83-.198 12.383-.532 17.537-.874 3.746-.248 7.415-.508 12-.694 9.415-.383 22.354-.398 32-.039 9.798.366 16.106 1.012 28.863.871 5.29-.058 26.3 2.533 29.337 3.012 3.94.62 15.29.853 21.62 1.355 5.095.404 6.3.917 4.738 1.412-3.15.996-5.666 2.056-11.676 3.003-6.6 1.04-26.278 1.05-41.653 1.05-23.361.003-47.561.115-70.73-.06-18.077-.135-39.126-.457-54.14-1.128-10.833-.484-20.708-1.338-15.925-2.2 3.13-.565 13.867-.903 13.178-1.558z" filter="url(#n8053fxoab)" opacity=".474" transform="translate(-1270 -427) translate(1258 427)"/>
                </g>
            </g>
        </g>
    </g>
</svg>
